<?xml version="1.0" encoding="utf-8"?>
<!-- Generator: Adobe Illustrator 25.2.0, SVG Export Plug-In . SVG Version: 6.00 Build 0)  -->
<svg version="1.1" id="Layer_1" xmlns="http://www.w3.org/2000/svg" xmlns:xlink="http://www.w3.org/1999/xlink" x="0px" y="0px"
	 viewBox="0 0 566.9 137.4" style="enable-background:new 0 0 566.9 137.4;" xml:space="preserve">
<style type="text/css">
	.st0{display:none;fill-rule:evenodd;clip-rule:evenodd;fill:#009EE3;}
	.st1{display:none;fill-rule:evenodd;clip-rule:evenodd;fill:#113984;}
	.st2{display:none;fill-rule:evenodd;clip-rule:evenodd;fill:#172C70;}
	.st3{fill:#1E2CE2;}
	.st4{font-family:'AcklinItalic';}
	.st5{font-size:127px;}
</style>
<path class="st0" d="M49.5,32.3h38.7c20.8,0,28.6,10.5,27.4,26C113.6,83.9,98.2,98,77.7,98H67.4c-2.8,0-4.7,1.9-5.5,6.9l-4.4,29.3
	c-0.3,1.9-1.3,3-2.8,3.1H30.4c-2.3,0-3.1-1.8-2.5-5.5l14.8-93.9C43.3,34.1,45.4,32.3,49.5,32.3z"/>
<path class="st1" d="M115.7,15.3c13.1,0,25.1,7.1,23.5,24.8c-2,21-13.3,32.6-31,32.7H92.6c-2.2,0-3.3,1.8-3.9,5.5l-3,19.1
	c-0.5,2.9-1.9,4.3-4.1,4.3H67.2c-2.3,0-3.1-1.5-2.6-4.8l11.9-76.4c0.6-3.8,2-5.2,4.6-5.2H115.7L115.7,15.3z M92.2,56.2h11.8
	c7.4-0.3,12.2-5.4,12.7-14.5c0.3-5.7-3.5-9.7-9.6-9.7L96,32L92.2,56.2L92.2,56.2z M178.4,95.8c1.3-1.2,2.7-1.8,2.5-0.3l-0.5,3.5
	c-0.2,1.9,0.5,2.8,2.2,2.8h12.8c2.2,0,3.2-0.9,3.7-4.2l7.9-49.6c0.4-2.5-0.2-3.7-2.1-3.7h-14.1c-1.3,0-1.9,0.7-2.2,2.6l-0.5,3
	c-0.3,1.6-1,1.9-1.7,0.3c-2.4-5.7-8.5-8.2-17-8c-19.8,0.4-33.1,15.4-34.5,34.7c-1.1,14.9,9.6,26.6,23.6,26.6
	C168.7,103.6,173.3,100.6,178.4,95.8L178.4,95.8L178.4,95.8z M167.6,88.2c-8.5,0-14.4-6.8-13.2-15.1S163.6,58,172.1,58
	s14.4,6.8,13.2,15.1S176.2,88.2,167.6,88.2L167.6,88.2z M232.1,44.2h-13c-2.7,0-3.8,2-2.9,4.5l16.1,47.3l-15.8,22.5
	c-1.3,1.9-0.3,3.6,1.6,3.6h14.6c1.7,0.2,3.4-0.6,4.3-2.1l49.6-71.2c1.5-2.2,0.8-4.5-1.7-4.5h-13.8c-2.4,0-3.3,0.9-4.7,2.9l-20.7,30
	L236.5,47C236,45.2,234.6,44.2,232.1,44.2L232.1,44.2z"/>
<path class="st0" d="M440.3,30.6c13.1,0,25.1,7.1,23.5,24.8c-2,21-13.2,32.6-31,32.7h-15.5c-2.2,0-3.3,1.8-3.9,5.5l-3,19.1
	c-0.5,2.9-1.9,4.3-4.1,4.3h-14.4c-2.3,0-3.1-1.5-2.6-4.8l11.9-76.5c0.6-3.8,2-5.2,4.6-5.2L440.3,30.6L440.3,30.6z M416.8,71.5h11.8
	c7.3-0.3,12.2-5.4,12.7-14.5c0.3-5.7-3.5-9.7-9.6-9.7l-11.1,0L416.8,71.5L416.8,71.5z M503,111.1c1.3-1.2,2.7-1.8,2.5-0.3l-0.5,3.5
	c-0.2,1.9,0.5,2.8,2.2,2.8h12.8c2.2,0,3.2-0.9,3.7-4.2l7.9-49.6c0.4-2.5-0.2-3.7-2.1-3.7h-14.1c-1.3,0-1.9,0.7-2.2,2.6l-0.5,3
	c-0.3,1.6-1,1.9-1.7,0.3c-2.4-5.7-8.5-8.2-17-8C474.3,58,461,73,459.6,92.2c-1.1,14.9,9.6,26.6,23.6,26.6
	C493.4,118.8,498,115.8,503,111.1L503,111.1L503,111.1z M492.3,103.5c-8.5,0-14.4-6.8-13.2-15.1s9.2-15.1,17.7-15.1
	S511.2,80,510,88.4S500.8,103.5,492.3,103.5L492.3,103.5z M551.4,117.2h-14.8c-1,0-1.8-0.7-1.8-1.7c0-0.1,0-0.2,0-0.3l13-82.4
	c0.3-1.2,1.3-2,2.5-2h14.8c1,0,1.8,0.7,1.8,1.7c0,0.1,0,0.2,0,0.3l-13,82.4C553.6,116.4,552.6,117.2,551.4,117.2L551.4,117.2z"/>
<path class="st1" d="M25.2,0H64c10.9,0,23.9,0.4,32.5,8c5.8,5.1,8.8,13.2,8.1,22c-2.4,29.6-20.1,46.2-43.9,46.2H41.7
	c-3.3,0-5.4,2.2-6.3,8l-5.3,34c-0.4,2.2-1.3,3.5-3,3.7H3.1c-2.6,0-3.6-2-2.9-6.4l17.2-109C18.1,2.1,20.5,0,25.2,0z"/>
<path class="st2" d="M35.9,80.8l6.8-42.9c0.6-3.8,2.6-5.6,6.8-5.6h38.7c6.4,0,11.6,1,15.7,2.9c-3.9,26.4-20.9,41-43.3,41H41.5
	C39,76.2,37.1,77.5,35.9,80.8z"/>
<rect x="381" y="196.1" style="fill:none;" width="14.2" height="30.8"/>
<g style="display:none;">
</g>
<text transform="matrix(1 0 0 1 15.5 109.8898)" class="st3 st4 st5">Pay Now</text>
</svg>
